<svg xmlns="http://www.w3.org/2000/svg" viewBox="0 0 304.11 267.45"><defs><style>.cls-1,.cls-2{fill-rule:evenodd;}.cls-2{fill:gold;}</style></defs><g id="Layer_2" data-name="Layer 2"><g id="Layer_1-2" data-name="Layer 1"><path class="cls-1" d="M0,124.37H49.63c27.29,0,49.57,26.16,49.57,58.19v84.57H0Z"/><path class="cls-2" d="M0,119H45.18A45.33,45.33,0,0,0,90.41,73.73v-2A45.33,45.33,0,0,0,45.18,26.52h0A45.32,45.32,0,0,0,0,71.7Z"/><path class="cls-1" d="M170.52,0c-27.94,0-50.83,24.89-50.83,55.33V267.45h31.48V186.8a62.43,62.43,0,1,1,124.85,0v80.65h28.09V0Zm43.07,119a46.22,46.22,0,1,1,46.22-46.22A46.22,46.22,0,0,1,213.59,119Z"/></g></g></svg>